<mxfile host="app.diagrams.net" modified="2023-03-25T14:47:45.564Z" agent="5.0 (Windows NT 10.0; Win64; x64) AppleWebKit/537.36 (KHTML, like Gecko) Chrome/101.0.0.0 Safari/537.36" etag="H_QNVBjKP54YFF3Cwf9D" version="21.0.10" type="github">
  <diagram name="Page-1" id="2YBvvXClWsGukQMizWep">
    <mxGraphModel dx="1050" dy="558" grid="1" gridSize="10" guides="1" tooltips="1" connect="1" arrows="1" fold="1" page="1" pageScale="1" pageWidth="850" pageHeight="1100" math="0" shadow="0">
      <root>
        <mxCell id="0" />
        <mxCell id="1" parent="0" />
        <mxCell id="aM9ryv3xv72pqoxQDRHE-1" value="Actor" style="shape=umlLifeline;perimeter=lifelinePerimeter;whiteSpace=wrap;html=1;container=0;dropTarget=0;collapsible=0;recursiveResize=0;outlineConnect=0;portConstraint=eastwest;newEdgeStyle={&quot;edgeStyle&quot;:&quot;elbowEdgeStyle&quot;,&quot;elbow&quot;:&quot;vertical&quot;,&quot;curved&quot;:0,&quot;rounded&quot;:0};" parent="1" vertex="1">
          <mxGeometry x="40" y="40" width="100" height="1000" as="geometry" />
        </mxCell>
        <mxCell id="aM9ryv3xv72pqoxQDRHE-5" value="AbstractBeanFactory" style="shape=umlLifeline;perimeter=lifelinePerimeter;whiteSpace=wrap;html=1;container=0;dropTarget=0;collapsible=0;recursiveResize=0;outlineConnect=0;portConstraint=eastwest;newEdgeStyle={&quot;edgeStyle&quot;:&quot;elbowEdgeStyle&quot;,&quot;elbow&quot;:&quot;vertical&quot;,&quot;curved&quot;:0,&quot;rounded&quot;:0};" parent="1" vertex="1">
          <mxGeometry x="170" y="40" width="160" height="1000" as="geometry" />
        </mxCell>
        <mxCell id="aM9ryv3xv72pqoxQDRHE-6" value="" style="html=1;points=[];perimeter=orthogonalPerimeter;outlineConnect=0;targetShapes=umlLifeline;portConstraint=eastwest;newEdgeStyle={&quot;edgeStyle&quot;:&quot;elbowEdgeStyle&quot;,&quot;elbow&quot;:&quot;vertical&quot;,&quot;curved&quot;:0,&quot;rounded&quot;:0};" parent="aM9ryv3xv72pqoxQDRHE-5" vertex="1">
          <mxGeometry x="75" y="80" width="10" height="500" as="geometry" />
        </mxCell>
        <mxCell id="pxblTijGbVg3523Y3Dmu-1" value="" style="html=1;points=[];perimeter=orthogonalPerimeter;outlineConnect=0;targetShapes=umlLifeline;portConstraint=eastwest;newEdgeStyle={&quot;edgeStyle&quot;:&quot;elbowEdgeStyle&quot;,&quot;elbow&quot;:&quot;vertical&quot;,&quot;curved&quot;:0,&quot;rounded&quot;:0};" vertex="1" parent="aM9ryv3xv72pqoxQDRHE-5">
          <mxGeometry x="82" y="100" width="10" height="300" as="geometry" />
        </mxCell>
        <mxCell id="pxblTijGbVg3523Y3Dmu-2" value="" style="endArrow=classic;html=1;rounded=0;edgeStyle=orthogonalEdgeStyle;" edge="1" parent="aM9ryv3xv72pqoxQDRHE-5" source="pxblTijGbVg3523Y3Dmu-1" target="pxblTijGbVg3523Y3Dmu-1">
          <mxGeometry width="50" height="50" relative="1" as="geometry">
            <mxPoint x="160" y="130" as="sourcePoint" />
            <mxPoint x="210" y="100" as="targetPoint" />
            <Array as="points">
              <mxPoint x="151" y="110" />
              <mxPoint x="151" y="130" />
            </Array>
          </mxGeometry>
        </mxCell>
        <mxCell id="pxblTijGbVg3523Y3Dmu-3" value="1.1:doCreateBean" style="edgeLabel;html=1;align=center;verticalAlign=middle;resizable=0;points=[];" vertex="1" connectable="0" parent="pxblTijGbVg3523Y3Dmu-2">
          <mxGeometry x="-0.2865" y="-1" relative="1" as="geometry">
            <mxPoint y="-11" as="offset" />
          </mxGeometry>
        </mxCell>
        <mxCell id="aM9ryv3xv72pqoxQDRHE-7" value="getBean" style="html=1;verticalAlign=bottom;endArrow=block;edgeStyle=elbowEdgeStyle;elbow=vertical;curved=0;rounded=0;" parent="1" target="aM9ryv3xv72pqoxQDRHE-6" edge="1">
          <mxGeometry relative="1" as="geometry">
            <mxPoint x="95" y="120" as="sourcePoint" />
            <Array as="points">
              <mxPoint x="180" y="120" />
            </Array>
          </mxGeometry>
        </mxCell>
        <mxCell id="pxblTijGbVg3523Y3Dmu-4" value="DefaultSingletonBeanRegistry" style="shape=umlLifeline;perimeter=lifelinePerimeter;whiteSpace=wrap;html=1;container=1;dropTarget=0;collapsible=0;recursiveResize=0;outlineConnect=0;portConstraint=eastwest;newEdgeStyle={&quot;edgeStyle&quot;:&quot;elbowEdgeStyle&quot;,&quot;elbow&quot;:&quot;vertical&quot;,&quot;curved&quot;:0,&quot;rounded&quot;:0};" vertex="1" parent="1">
          <mxGeometry x="400" y="40" width="180" height="1000" as="geometry" />
        </mxCell>
        <mxCell id="pxblTijGbVg3523Y3Dmu-5" value="" style="html=1;points=[];perimeter=orthogonalPerimeter;outlineConnect=0;targetShapes=umlLifeline;portConstraint=eastwest;newEdgeStyle={&quot;edgeStyle&quot;:&quot;elbowEdgeStyle&quot;,&quot;elbow&quot;:&quot;vertical&quot;,&quot;curved&quot;:0,&quot;rounded&quot;:0};" vertex="1" parent="pxblTijGbVg3523Y3Dmu-4">
          <mxGeometry x="85" y="170" width="10" height="100" as="geometry" />
        </mxCell>
        <mxCell id="pxblTijGbVg3523Y3Dmu-9" value="" style="html=1;points=[];perimeter=orthogonalPerimeter;outlineConnect=0;targetShapes=umlLifeline;portConstraint=eastwest;newEdgeStyle={&quot;edgeStyle&quot;:&quot;elbowEdgeStyle&quot;,&quot;elbow&quot;:&quot;vertical&quot;,&quot;curved&quot;:0,&quot;rounded&quot;:0};" vertex="1" parent="pxblTijGbVg3523Y3Dmu-4">
          <mxGeometry x="92" y="190" width="10" height="60" as="geometry" />
        </mxCell>
        <mxCell id="pxblTijGbVg3523Y3Dmu-8" value="" style="endArrow=classic;html=1;rounded=0;edgeStyle=orthogonalEdgeStyle;" edge="1" parent="pxblTijGbVg3523Y3Dmu-4" source="pxblTijGbVg3523Y3Dmu-9" target="pxblTijGbVg3523Y3Dmu-9">
          <mxGeometry width="50" height="50" relative="1" as="geometry">
            <mxPoint x="140" y="200" as="sourcePoint" />
            <mxPoint x="190" y="200" as="targetPoint" />
            <Array as="points">
              <mxPoint x="180" y="210" />
              <mxPoint x="180" y="230" />
            </Array>
          </mxGeometry>
        </mxCell>
        <mxCell id="pxblTijGbVg3523Y3Dmu-10" value="1.1.1.1:getSingleton" style="edgeLabel;html=1;align=center;verticalAlign=middle;resizable=0;points=[];" vertex="1" connectable="0" parent="pxblTijGbVg3523Y3Dmu-8">
          <mxGeometry x="-0.4114" y="2" relative="1" as="geometry">
            <mxPoint x="16" y="-8" as="offset" />
          </mxGeometry>
        </mxCell>
        <mxCell id="pxblTijGbVg3523Y3Dmu-6" value="" style="endArrow=classic;html=1;rounded=0;" edge="1" parent="1" source="pxblTijGbVg3523Y3Dmu-1" target="pxblTijGbVg3523Y3Dmu-5">
          <mxGeometry width="50" height="50" relative="1" as="geometry">
            <mxPoint x="300" y="230" as="sourcePoint" />
            <mxPoint x="350" y="180" as="targetPoint" />
            <Array as="points">
              <mxPoint x="370" y="220" />
            </Array>
          </mxGeometry>
        </mxCell>
        <mxCell id="pxblTijGbVg3523Y3Dmu-7" value="1.1.1ï¼šgetSingleton" style="edgeLabel;html=1;align=center;verticalAlign=middle;resizable=0;points=[];" vertex="1" connectable="0" parent="pxblTijGbVg3523Y3Dmu-6">
          <mxGeometry x="-0.1318" relative="1" as="geometry">
            <mxPoint as="offset" />
          </mxGeometry>
        </mxCell>
        <mxCell id="pxblTijGbVg3523Y3Dmu-11" value="" style="endArrow=classic;html=1;rounded=0;" edge="1" parent="1" source="pxblTijGbVg3523Y3Dmu-5" target="pxblTijGbVg3523Y3Dmu-1">
          <mxGeometry width="50" height="50" relative="1" as="geometry">
            <mxPoint x="340" y="310" as="sourcePoint" />
            <mxPoint x="390" y="260" as="targetPoint" />
            <Array as="points">
              <mxPoint x="330" y="300" />
            </Array>
          </mxGeometry>
        </mxCell>
      </root>
    </mxGraphModel>
  </diagram>
</mxfile>
